PathFileType	4	(X/Y/Z)	E:\Marcel_BSc\Ayumi_22_01_2025\22-01-2025\conv_dl_1.trc
DataRate	CameraRate	NumFrames	NumMarkers	Units	OrigDataRate	OrigDataStartFrame	OrigNumFrames
200.0	200.0	4	47	mm	200.0	917	2445	
Frame#	Time	FHD			LBHD			RBHD			RBAR			LBAR			RSACR			LSACR			USACR			C7			CLAV			T10			RSHO			LSHO			LTHI1			LTHI3			LTHI2			LTIB1			LTIB2			LTIB3			LMMAL			LLMAL			LHEE			LMT1			LMT5			LMT3			RTHI1			RTHI2			RTHI3			RTIB1			RTIB3			RTIB2			RLMAL			RMMAL			RHEE			RMT5			RMT1			RMT3			LDUPA			LMUPA			LUUPA			LRAD			RUL			RRAD			RUFIN			RMUPA			RDUPA			RUUPA			
		X1	Y1	Z1	X2	Y2	Z2	X3	Y3	Z3	X4	Y4	Z4	X5	Y5	Z5	X6	Y6	Z6	X7	Y7	Z7	X8	Y8	Z8	X9	Y9	Z9	X10	Y10	Z10	X11	Y11	Z11	X12	Y12	Z12	X13	Y13	Z13	X14	Y14	Z14	X15	Y15	Z15	X16	Y16	Z16	X17	Y17	Z17	X18	Y18	Z18	X19	Y19	Z19	X20	Y20	Z20	X21	Y21	Z21	X22	Y22	Z22	X23	Y23	Z23	X24	Y24	Z24	X25	Y25	Z25	X26	Y26	Z26	X27	Y27	Z27	X28	Y28	Z28	X29	Y29	Z29	X30	Y30	Z30	X31	Y31	Z31	X32	Y32	Z32	X33	Y33	Z33	X34	Y34	Z34	X35	Y35	Z35	X36	Y36	Z36	X37	Y37	Z37	X38	Y38	Z38	X39	Y39	Z39	X40	Y40	Z40	X41	Y41	Z41	X42	Y42	Z42	X43	Y43	Z43	X44	Y44	Z44	X45	Y45	Z45	X46	Y46	Z46	X47	Y47	Z47	
917	4.575	-141.45734	1028.407	-620.18176	-125.97503	1020.7381	-557.54138	-84.149696	1017.6111	-684.69067	135.09181	239.57948	-1712.7942	166.55811	249.84889	509.82571	497.06262	729.82025	-664.82123	494.56064	734.00122	-592.33539	483.9541	736.12317	-628.53418	106.96556	942.30859	-596.60944	75.973602	788.1192	-604.83362	344.20355	821.88501	-620.55701	56.614178	808.81952	-746.56873	80.190353	812.75867	-445.34616	307.05157	498.09503	-414.33667	259.56317	449.75153	-434.76306	238.76491	495.36221	-426.92328	192.91669	221.35255	-433.33734	247.89676	232.5071	-427.78073	232.71715	168.95334	-438.10202	259.58289	75.260574	-527.07489	273.79828	69.970062	-449.37115	320.71658	36.033829	-496.49939	122.67957	45.057869	-489.7923	146.71556	27.862116	-413.49045	122.83183	42.450787	-455.03351	307.6618	484.26898	-827.11737	242.2216	489.25259	-822.7016	260.65906	442.392	-808.85822	190.31076	260.41953	-815.2298	221.38353	203.72282	-806.19727	240.35464	265.22772	-819.60651	268.1239	73.867928	-784.38782	239.67162	79.937767	-708.88135	316.41537	32.2798	-736.40753	139.0295	32.467442	-809.10754	116.22124	42.004955	-746.40778	120.75784	39.961617	-776.80511	200.93382	641.31897	-375.86569	151.46193	637.89691	-383.09427	147.25111	699.50208	-385.40927	183.54407	316.21445	-334.44952	103.46812	316.27213	-891.01245	107.13084	311.43619	-827.24756	103.99512	236.59305	-825.4408	110.09862	719.37067	-829.22235	118.72172	660.21442	-846.34955	156.41362	729.83417	-842.65668
918	4.58	-139.88406	1029.9708	-620.42603	-124.80835	1022.3463	-557.66504	-82.561668	1018.8525	-684.85022	135.0546	239.61334	-1712.7607	166.54913	249.88434	509.87088	496.98773	728.86334	-664.92664	494.58551	732.83783	-592.48975	484.09637	734.83008	-628.65308	108.00109	942.40521	-596.5141	76.200623	788.27118	-604.8689	344.52267	821.18677	-620.56519	57.235916	808.89587	-746.84521	80.729897	812.86835	-445.36932	304.2966	495.08936	-419.11755	258.98877	449.133	-434.72772	238.44598	494.95551	-426.73193	192.71211	221.28404	-433.04654	247.6337	232.46465	-427.65469	232.62102	168.85419	-437.97549	259.54663	75.26947	-527.04498	273.7991	69.960953	-449.31808	320.72766	36.02636	-496.48978	122.682	45.099709	-489.77823	146.70784	27.874887	-413.47849	122.84361	42.473488	-454.97293	307.05103	483.66122	-827.20673	241.62686	488.80258	-822.8501	259.9303	441.85452	-808.9491	190.26071	260.43665	-815.26971	221.17523	203.73337	-806.31689	240.27658	265.19321	-819.62085	268.06683	73.842285	-784.45587	239.5992	79.916687	-708.90613	316.41473	32.265499	-736.42084	138.88348	32.192905	-808.99164	116.21943	41.985229	-746.41101	120.58858	39.802994	-776.83771	201.60873	641.24896	-375.97305	152.07944	637.96881	-383.07715	148.11641	699.61127	-385.18723	183.47459	316.24463	-334.42505	103.38862	316.31555	-890.45166	107.07658	311.46564	-827.16821	103.90797	236.59865	-825.44849	110.66602	719.38031	-829.19263	119.28091	660.17645	-846.25037	157.00909	729.81262	-842.54352
919	4.585	-138.38365	1031.407	-620.70593	-123.32581	1023.5049	-558.02081	-80.995781	1020.0522	-685.07056	135.01985	239.62192	-1712.7295	166.54947	249.91585	509.89337	497.00732	727.72565	-665.03326	494.58307	731.97125	-592.50812	483.95789	734.0683	-628.74475	108.75854	942.40405	-596.61212	76.438362	788.40765	-604.86188	344.80557	820.4726	-620.58569	57.73489	809.06189	-746.97937	81.358246	813.01733	-445.36966	303.96143	494.52277	-419.07956	258.56766	448.77188	-434.59116	238.07237	494.57498	-426.60666	192.49838	221.20425	-432.82693	247.35133	232.44835	-427.47943	232.41656	168.79221	-437.87201	259.53537	75.255684	-527.00134	273.73581	69.880951	-449.21133	320.73663	36.047802	-496.46902	122.69908	45.142536	-489.73474	146.70638	27.858608	-413.45398	122.84959	42.466293	-454.97711	306.43689	483.00317	-827.33929	241.11137	488.25504	-823.09766	259.24829	441.41409	-809.104	190.17162	260.5152	-815.35138	220.97473	203.69232	-806.43805	240.19612	265.11523	-819.6571	268.01196	73.827255	-784.5177	239.54527	79.897354	-708.95184	316.42078	32.25803	-736.43494	139.049	32.467403	-809.1181	116.2259	41.990864	-746.41095	120.77666	39.993202	-776.83081	202.21246	641.21307	-376.08615	152.6963	638.0777	-383.06192	148.74022	699.71222	-385.32462	183.44353	316.28122	-334.40097	103.36024	316.36954	-890.40088	107.01291	311.50885	-827.09271	103.87754	236.61919	-825.40961	111.2345	719.36505	-829.19824	119.80194	660.1051	-846.21765	157.61256	729.77466	-842.43555
920	4.59	-136.52243	1032.6429	-620.98401	-121.90294	1024.7976	-558.23456	-79.459885	1021.2299	-685.23474	134.99805	239.61459	-1712.7083	166.56114	249.94701	509.92371	496.88513	726.89044	-665.11304	494.5827	730.90918	-592.65961	483.96368	733.0509	-628.81696	109.49433	942.43097	-596.6153	76.658012	788.59448	-604.89404	345.01382	819.87341	-620.66895	58.16383	809.27576	-747.09784	81.882828	813.41162	-445.09448	303.52829	494.06125	-419.0607	258.09198	448.4469	-434.3981	237.79805	494.2045	-426.38031	192.33673	221.12051	-432.54282	247.07468	232.41682	-427.29178	232.25362	168.76207	-437.76535	259.52344	75.329521	-526.93903	273.6467	69.680374	-449.21304	320.77979	36.040981	-496.4382	122.66669	45.212849	-489.70279	146.72632	27.862982	-413.43982	122.85043	42.486015	-454.92929	305.83365	482.60245	-827.40448	240.66058	487.87756	-824.01788	258.55127	441.05768	-809.01135	190.0914	260.55066	-815.40503	220.79221	203.64999	-806.51685	240.30319	265.31967	-820.00287	267.96094	73.820869	-784.58813	239.51692	79.861282	-708.97015	316.43936	32.250553	-736.44305	138.89079	32.17944	-808.98828	116.22729	41.988407	-746.43365	120.61687	39.821552	-776.84583	202.73529	641.20752	-376.16943	153.22833	638.1886	-383.07016	149.43182	699.81854	-385.27637	183.42107	316.3497	-334.40494	103.33688	316.42694	-890.33893	106.97398	311.53333	-827.03455	103.84145	236.64908	-825.37158	111.79828	719.37598	-829.18927	120.26713	660.12756	-846.13666	158.26396	729.59698	-842.35199
